<svg width="120" height="185" viewBox="0 0 120 185" fill="none" xmlns="http://www.w3.org/2000/svg">
<path d="M43.7637 6.11739C48.6481 5.28743 53.1023 9.05151 53.1025 14.0031V58.4729C60.2213 55.1007 68.203 53.6243 76.1016 53.6242C89.0559 53.6242 99.0024 57.9635 105.476 66.509C111.708 74.7375 114 85.9449 114 98.2912V170.72C114 175.136 110.421 178.72 106 178.72H74.7441C70.3235 178.72 66.7441 175.136 66.7441 170.72V103.334C66.7441 98.2917 66.2252 95.0557 65.4189 93.259C65.0634 92.4666 64.7803 92.2507 64.7295 92.215C64.7246 92.2116 64.5563 92.0647 63.8916 92.0647C62.842 92.0649 60.2554 92.9854 57.6182 96.9152C55.1194 100.639 53.1025 106.434 53.1025 114.032V170.72C53.1025 175.136 49.5232 178.72 45.1025 178.72H14C9.58052 178.72 6 175.136 6 170.72V19.2844C6.00018 15.3833 8.81431 12.0506 12.6611 11.3977L43.7637 6.11739Z" stroke="white" stroke-width="12"/>
</svg>
